<svg width="24" height="24" viewBox="0 0 24 24" fill="none" xmlns="http://www.w3.org/2000/svg">
<path d="M22 22L22 23L23 22L22 22ZM2 22L1 22L2 23L2 22ZM12 17L13 17L13 2L12 2L11 2L11 17L12 17ZM6 10.7528L6 11.7528C8.72373 11.7528 11 14.0636 11 17L12 17L13 17C13 13.0359 9.90364 9.7528 6 9.7528L6 10.7528ZM18 10.7528L18 9.7528C14.0964 9.7528 11 13.0359 11 17L12 17L13 17C13 14.0636 15.2763 11.7528 18 11.7528L18 10.7528ZM22 22L22 21L2 21L2 22L2 23L22 23L22 22ZM22 14L21 14L21 22L22 22L23 22L23 14L22 14ZM2 22L3 22L3 14L2 14L1 14L1 22L2 22Z" fill="#2B2B36"/>
</svg>
