<svg width="924" height="600" viewBox="0 0 924 600" fill="none" xmlns="http://www.w3.org/2000/svg">
<mask id="path-1-inside-1_4059_135" fill="white">
<path d="M258.998 69.4498C267.849 60.5987 278.357 53.5776 289.922 48.7874C301.486 43.9972 313.881 41.5317 326.398 41.5317C338.916 41.5317 351.311 43.9972 362.875 48.7874C374.44 53.5776 384.948 60.5987 393.799 69.4498C402.65 78.3009 409.671 88.8087 414.461 100.373C419.251 111.938 421.717 124.333 421.717 136.85C421.717 149.367 419.251 161.762 414.461 173.327C409.671 184.891 402.65 195.399 393.799 204.25L369.957 180.408C375.677 174.688 380.214 167.897 383.31 160.424C386.406 152.95 387.999 144.94 387.999 136.85C387.999 128.76 386.406 120.75 383.31 113.276C380.214 105.803 375.677 99.0119 369.957 93.2917C364.237 87.5715 357.446 83.0341 349.972 79.9383C342.498 76.8426 334.488 75.2493 326.398 75.2493C318.309 75.2493 310.299 76.8426 302.825 79.9383C295.351 83.0341 288.56 87.5715 282.84 93.2917L258.998 69.4498Z"/>
</mask>
<path d="M258.998 69.4498C267.849 60.5987 278.357 53.5776 289.922 48.7874C301.486 43.9972 313.881 41.5317 326.398 41.5317C338.916 41.5317 351.311 43.9972 362.875 48.7874C374.44 53.5776 384.948 60.5987 393.799 69.4498C402.65 78.3009 409.671 88.8087 414.461 100.373C419.251 111.938 421.717 124.333 421.717 136.85C421.717 149.367 419.251 161.762 414.461 173.327C409.671 184.891 402.65 195.399 393.799 204.25L369.957 180.408C375.677 174.688 380.214 167.897 383.31 160.424C386.406 152.95 387.999 144.94 387.999 136.85C387.999 128.76 386.406 120.75 383.31 113.276C380.214 105.803 375.677 99.0119 369.957 93.2917C364.237 87.5715 357.446 83.0341 349.972 79.9383C342.498 76.8426 334.488 75.2493 326.398 75.2493C318.309 75.2493 310.299 76.8426 302.825 79.9383C295.351 83.0341 288.56 87.5715 282.84 93.2917L258.998 69.4498Z" stroke="#4A4F57" stroke-width="2" mask="url(#path-1-inside-1_4059_135)"/>
<mask id="path-2-inside-2_4059_135" fill="white">
<path d="M693.2 503.201C684.349 512.052 673.842 519.073 662.277 523.863C650.712 528.653 638.318 531.119 625.8 531.119C613.283 531.119 600.888 528.653 589.324 523.863C577.759 519.073 567.251 512.052 558.4 503.201C549.549 494.349 542.528 483.842 537.738 472.277C532.947 460.713 530.482 448.318 530.482 435.8C530.482 423.283 532.947 410.888 537.738 399.324C542.528 387.759 549.549 377.251 558.4 368.4L582.242 392.242C576.522 397.962 571.984 404.753 568.889 412.227C565.793 419.701 564.2 427.711 564.2 435.8C564.2 443.89 565.793 451.9 568.889 459.374C571.984 466.848 576.522 473.639 582.242 479.359C587.962 485.079 594.753 489.616 602.227 492.712C609.7 495.808 617.711 497.401 625.8 497.401C633.89 497.401 641.9 495.808 649.374 492.712C656.848 489.616 663.638 485.079 669.359 479.359L693.2 503.201Z"/>
</mask>
<path d="M693.2 503.201C684.349 512.052 673.842 519.073 662.277 523.863C650.712 528.653 638.318 531.119 625.8 531.119C613.283 531.119 600.888 528.653 589.324 523.863C577.759 519.073 567.251 512.052 558.4 503.201C549.549 494.349 542.528 483.842 537.738 472.277C532.947 460.713 530.482 448.318 530.482 435.8C530.482 423.283 532.947 410.888 537.738 399.324C542.528 387.759 549.549 377.251 558.4 368.4L582.242 392.242C576.522 397.962 571.984 404.753 568.889 412.227C565.793 419.701 564.2 427.711 564.2 435.8C564.2 443.89 565.793 451.9 568.889 459.374C571.984 466.848 576.522 473.639 582.242 479.359C587.962 485.079 594.753 489.616 602.227 492.712C609.7 495.808 617.711 497.401 625.8 497.401C633.89 497.401 641.9 495.808 649.374 492.712C656.848 489.616 663.638 485.079 669.359 479.359L693.2 503.201Z" stroke="#4A4F57" stroke-width="2" mask="url(#path-2-inside-2_4059_135)"/>
<path d="M350.295 160.552C353.458 157.389 355.967 153.635 357.678 149.502C359.39 145.37 360.271 140.941 360.271 136.468C360.271 131.995 359.39 127.566 357.678 123.434C355.967 119.302 353.458 115.547 350.295 112.384C347.132 109.222 343.377 106.713 339.245 105.001C335.113 103.289 330.684 102.408 326.211 102.408C321.738 102.408 317.309 103.289 313.177 105.001C309.044 106.713 305.29 109.222 302.127 112.384" stroke="#4A4F57"/>
<path d="M601.904 412.098C598.741 415.26 596.232 419.015 594.521 423.147C592.809 427.28 591.928 431.709 591.928 436.182C591.928 440.654 592.809 445.083 594.521 449.216C596.232 453.348 598.741 457.103 601.904 460.266C605.067 463.428 608.821 465.937 612.954 467.649C617.086 469.361 621.515 470.242 625.988 470.242C630.461 470.242 634.89 469.361 639.022 467.649C643.154 465.937 646.909 463.428 650.072 460.266" stroke="#4A4F57"/>
<path d="M463 138.794L601.794 -5.12163e-05" stroke="#4A4F57"/>
<path d="M476.436 152.229L628.5 0.164547" stroke="#4A4F57"/>
<path d="M489.871 165.664L656 -0.46533" stroke="#4A4F57"/>
<path d="M503.305 179.099L682.5 -0.0957024" stroke="#4A4F57"/>
<path d="M516.74 192.535L709.275 -9.13697e-06" stroke="#4A4F57"/>
<path d="M923.5 599.576L462.272 138.348" stroke="#4A4F57"/>
<path d="M789.5 599.615L190 0.114833" stroke="#4A4F57"/>
<path d="M530.176 205.969L736.145 -6.23415e-06" stroke="#4A4F57"/>
<path d="M462 547L462 0" stroke="#4A4F57"/>
<circle cx="519" cy="544" r="56.5" stroke="#4A4F57"/>
<circle cx="519" cy="544" r="24.5" stroke="#4A4F57"/>
</svg>
