<svg width="1378" height="1255" viewBox="0 0 1378 1255" fill="none" xmlns="http://www.w3.org/2000/svg">
<path d="M615 514C615 542.714 591.499 566 562.5 566C533.501 566 510 542.714 510 514C510 485.286 533.501 462 562.5 462C591.499 462 615 485.286 615 514Z" stroke="#4A4F57"/>
<path d="M583 514C583 525.034 573.833 534 562.5 534C551.167 534 542 525.034 542 514C542 502.966 551.167 494 562.5 494C573.833 494 583 502.966 583 514Z" stroke="#4A4F57"/>
<path d="M689.5 590C691.1 588.4 1213.5 66 1276 3.5" stroke="#4A4F57"/>
<path d="M1 1150.5C2.6 1148.9 627.5 524 690 461.5" stroke="#4A4F57"/>
<path d="M689.5 616C691.1 614.4 1242.5 63 1305 0.5" stroke="#4A4F57"/>
<path d="M689.5 642C691.1 640.4 1267.4 64.1 1329.9 1.59998" stroke="#4A4F57"/>
<path d="M689.5 668C691.1 666.4 1292.9 64.5996 1355.4 2.09961" stroke="#4A4F57"/>
<path d="M690 693.5C691.6 691.9 1314.4 69.0996 1376.9 6.59961" stroke="#4A4F57"/>
<path d="M1.50008 1254C3.10008 1252.4 626.5 629 689 566.5" stroke="#4A4F57"/>
<path d="M689.4 693.5L1372.9 693.5" stroke="#4A4F57"/>
<path d="M708 675.5H1374.9" stroke="#4A4F57"/>
<path d="M615.5 515.5L636 515.5" stroke="#4A4F57"/>
<path d="M726.5 657.5H1373.9" stroke="#4A4F57"/>
<path d="M612.5 497.5H654" stroke="#4A4F57"/>
<path d="M744 639.5H1376.4" stroke="#4A4F57"/>
<path d="M602 479.5H672" stroke="#4A4F57"/>
<path d="M762 621.5H1377.4" stroke="#4A4F57"/>
<path d="M560 461.5H689.5" stroke="#4A4F57"/>
<path d="M689.5 462.5L689.5 694" stroke="#4A4F57"/>
</svg>
