<svg width="1404" height="841" viewBox="0 0 1404 841" fill="none" xmlns="http://www.w3.org/2000/svg">
<mask id="path-1-inside-1_4080_300" fill="white">
<path d="M498.498 69.9151C507.349 61.064 517.857 54.0429 529.422 49.2527C540.986 44.4625 553.381 41.997 565.898 41.997C578.416 41.997 590.811 44.4625 602.375 49.2527C613.94 54.0429 624.448 61.064 633.299 69.9151C642.15 78.7662 649.171 89.2741 653.961 100.839C658.751 112.403 661.217 124.798 661.217 137.315C661.217 149.833 658.751 162.228 653.961 173.792C649.171 185.357 642.15 195.864 633.299 204.716L609.457 180.874C615.177 175.153 619.714 168.363 622.81 160.889C625.906 153.415 627.499 145.405 627.499 137.315C627.499 129.226 625.906 121.215 622.81 113.742C619.714 106.268 615.177 99.4772 609.457 93.757C603.737 88.0369 596.946 83.4994 589.472 80.4037C581.998 77.3079 573.988 75.7146 565.898 75.7146C557.809 75.7146 549.799 77.3079 542.325 80.4037C534.851 83.4994 528.06 88.0369 522.34 93.757L498.498 69.9151Z"/>
</mask>
<path d="M498.498 69.9151C507.349 61.064 517.857 54.0429 529.422 49.2527C540.986 44.4625 553.381 41.997 565.898 41.997C578.416 41.997 590.811 44.4625 602.375 49.2527C613.94 54.0429 624.448 61.064 633.299 69.9151C642.15 78.7662 649.171 89.2741 653.961 100.839C658.751 112.403 661.217 124.798 661.217 137.315C661.217 149.833 658.751 162.228 653.961 173.792C649.171 185.357 642.15 195.864 633.299 204.716L609.457 180.874C615.177 175.153 619.714 168.363 622.81 160.889C625.906 153.415 627.499 145.405 627.499 137.315C627.499 129.226 625.906 121.215 622.81 113.742C619.714 106.268 615.177 99.4772 609.457 93.757C603.737 88.0369 596.946 83.4994 589.472 80.4037C581.998 77.3079 573.988 75.7146 565.898 75.7146C557.809 75.7146 549.799 77.3079 542.325 80.4037C534.851 83.4994 528.06 88.0369 522.34 93.757L498.498 69.9151Z" stroke="#4A4F57" stroke-width="2" mask="url(#path-1-inside-1_4080_300)"/>
<mask id="path-2-inside-2_4080_300" fill="white">
<path d="M932.701 503.666C923.85 512.517 913.342 519.538 901.777 524.328C890.213 529.119 877.818 531.584 865.301 531.584C852.783 531.584 840.389 529.119 828.824 524.328C817.259 519.538 806.752 512.517 797.901 503.666C789.049 494.815 782.028 484.307 777.238 472.742C772.448 461.178 769.982 448.783 769.982 436.266C769.982 423.748 772.448 411.354 777.238 399.789C782.028 388.224 789.049 377.717 797.901 368.866L821.742 392.707C816.022 398.428 811.485 405.218 808.389 412.692C805.293 420.166 803.7 428.176 803.7 436.266C803.7 444.355 805.293 452.366 808.389 459.839C811.485 467.313 816.022 474.104 821.742 479.824C827.463 485.544 834.253 490.082 841.727 493.177C849.201 496.273 857.211 497.866 865.301 497.866C873.39 497.866 881.401 496.273 888.874 493.177C896.348 490.082 903.139 485.544 908.859 479.824L932.701 503.666Z"/>
</mask>
<path d="M932.701 503.666C923.85 512.517 913.342 519.538 901.777 524.328C890.213 529.119 877.818 531.584 865.301 531.584C852.783 531.584 840.389 529.119 828.824 524.328C817.259 519.538 806.752 512.517 797.901 503.666C789.049 494.815 782.028 484.307 777.238 472.742C772.448 461.178 769.982 448.783 769.982 436.266C769.982 423.748 772.448 411.354 777.238 399.789C782.028 388.224 789.049 377.717 797.901 368.866L821.742 392.707C816.022 398.428 811.485 405.218 808.389 412.692C805.293 420.166 803.7 428.176 803.7 436.266C803.7 444.355 805.293 452.366 808.389 459.839C811.485 467.313 816.022 474.104 821.742 479.824C827.463 485.544 834.253 490.082 841.727 493.177C849.201 496.273 857.211 497.866 865.301 497.866C873.39 497.866 881.401 496.273 888.874 493.177C896.348 490.082 903.139 485.544 908.859 479.824L932.701 503.666Z" stroke="#4A4F57" stroke-width="2" mask="url(#path-2-inside-2_4080_300)"/>
<path d="M589.795 161.018C592.958 157.855 595.467 154.1 597.178 149.968C598.89 145.835 599.771 141.406 599.771 136.934C599.771 132.461 598.89 128.032 597.178 123.899C595.467 119.767 592.958 116.012 589.795 112.85C586.632 109.687 582.877 107.178 578.745 105.466C574.613 103.755 570.184 102.874 565.711 102.874C561.238 102.874 556.809 103.755 552.677 105.466C548.544 107.178 544.79 109.687 541.627 112.85" stroke="#4A4F57"/>
<path d="M841.404 412.563C838.242 415.726 835.733 419.48 834.021 423.613C832.309 427.745 831.428 432.174 831.428 436.647C831.428 441.12 832.309 445.549 834.021 449.681C835.733 453.813 838.242 457.568 841.404 460.731C844.567 463.894 848.322 466.403 852.454 468.114C856.586 469.826 861.015 470.707 865.488 470.707C869.961 470.707 874.39 469.826 878.522 468.114C882.655 466.403 886.41 463.894 889.572 460.731" stroke="#4A4F57"/>
<path d="M702.5 139.26L841.294 0.465281" stroke="#4A4F57"/>
<path d="M715.936 152.694L868 0.629879" stroke="#4A4F57"/>
<path d="M729.371 166.129L895.5 2.14122e-06" stroke="#4A4F57"/>
<path d="M742.805 179.564L922 0.36963" stroke="#4A4F57"/>
<path d="M756.24 193L948.775 0.465323" stroke="#4A4F57"/>
<path d="M1403 840.042L701.771 138.813" stroke="#4A4F57"/>
<path d="M1268 839.08L429.5 0.579889" stroke="#4A4F57"/>
<path d="M769.676 206.434L975.645 0.465326" stroke="#4A4F57"/>
<path d="M701.5 547.465L701.5 0.465332" stroke="#4A4F57"/>
<circle cx="758.5" cy="544.465" r="56.5" stroke="#4A4F57"/>
<circle cx="758.5" cy="544.465" r="24.5" stroke="#4A4F57"/>
</svg>
