<svg width="20" height="20" viewBox="0 0 20 20" fill="none" xmlns="http://www.w3.org/2000/svg">
<g clip-path="url(#clip0_3008_184)">
<path d="M18.5204 0H1.47522C0.661441 0 0 0.6457 0 1.44226V18.5572C0 19.3538 0.661441 20.0005 1.47522 20.0005H18.5204C19.3356 20.0005 20 19.3538 20 18.5572V1.44226C20 0.6457 19.3361 0 18.5204 0Z" fill="white"/>
<path d="M2.96341 7.49789H5.93302V17.0424H2.96341V7.49789ZM4.44895 2.75342C5.39787 2.75342 6.16841 3.52393 6.16841 4.47332C6.16841 5.42271 5.39787 6.19371 4.44895 6.19371C3.50004 6.19371 2.72803 5.4232 2.72803 4.47332C2.72803 3.52344 3.49611 2.75342 4.44895 2.75342Z" fill="#2B2B36"/>
<path d="M7.79395 7.4976H10.6373V8.80227H10.678C11.0736 8.0519 12.0412 7.26074 13.4845 7.26074C16.488 7.26074 17.0433 9.23715 17.0433 11.8077V17.0421H14.0771V12.4008C14.0771 11.2942 14.058 9.87008 12.5356 9.87008C11.0132 9.87008 10.7567 11.0765 10.7567 12.3217V17.0421H7.79395V7.4976Z" fill="#2B2B36"/>
</g>
<defs>
<clipPath id="clip0_3008_184">
<rect width="20" height="20" rx="2" fill="white"/>
</clipPath>
</defs>
</svg>
