<svg width="72" height="72" viewBox="0 0 72 72" fill="none" xmlns="http://www.w3.org/2000/svg">
<path d="M72 36C72 16.1178 55.8822 0 36 0C16.1178 0 0 16.1178 0 36V72H36C55.8822 72 72 55.8822 72 36Z" fill="#6EFCD0"/>
<path d="M42.3512 71.9998C25.9775 71.9998 12.7041 58.7264 12.7041 42.3527C12.7041 25.9791 25.9775 12.7057 42.3512 12.7057H71.8258C71.9211 12.7057 71.9982 12.7829 71.9982 12.8781V42.3527C71.9982 58.7264 58.7248 71.9998 42.3512 71.9998Z" fill="#126E64"/>
<path fill-rule="evenodd" clip-rule="evenodd" d="M30.7041 43.4119C30.7041 40.488 33.0743 38.1177 35.9982 38.1177H50.8218C52.5761 38.1177 53.9982 39.5399 53.9982 41.2942C53.9982 43.0485 52.5761 44.4707 50.8218 44.4707H37.057V55.0589C37.057 56.8132 35.6349 58.2354 33.8806 58.2354C32.1263 58.2354 30.7041 56.8132 30.7041 55.0589V43.4119ZM45.7394 48.2824C47.1428 47.2299 49.1339 47.5143 50.1865 48.9177L53.3629 53.153C54.4155 54.5565 54.1311 56.5475 52.7276 57.6001C51.3242 58.6527 49.3332 58.3683 48.2806 56.9648L45.1041 52.7295C44.0515 51.326 44.3359 49.335 45.7394 48.2824Z" fill="white"/>
<path d="M39.1749 23.8234C41.0573 22.4116 43.6454 22.4116 45.5278 23.8234L52.7278 29.2234C54.1313 30.276 54.4157 32.267 53.3631 33.6705C52.3105 35.0739 50.3195 35.3583 48.916 34.3058L42.3513 29.3822L35.7866 34.3058C34.3832 35.3583 32.3922 35.0739 31.3396 33.6705C30.287 32.267 30.5714 30.276 31.9749 29.2234L39.1749 23.8234Z" fill="#6EFCD0"/>
</svg>
