<svg width="48" height="48" viewBox="0 0 48 48" fill="none" xmlns="http://www.w3.org/2000/svg">
<rect width="48" height="48" rx="24" fill="white"/>
<path d="M23.5297 37.0593C16.6097 37.0593 11 31.4496 11 24.5297C11 17.6097 16.6097 12 23.5297 12H35.9865C36.0267 12 36.0593 12.0326 36.0593 12.0729V24.5297C36.0593 31.4496 30.4496 37.0593 23.5297 37.0593Z" fill="#126E64"/>
<path fill-rule="evenodd" clip-rule="evenodd" d="M18.6073 24.9767C18.6073 23.741 19.609 22.7393 20.8447 22.7393H27.1096C27.851 22.7393 28.452 23.3403 28.452 24.0817C28.452 24.8231 27.851 25.4242 27.1096 25.4242H21.2922V29.8991C21.2922 30.6405 20.6912 31.2415 19.9498 31.2415C19.2083 31.2415 18.6073 30.6405 18.6073 29.8991V24.9767ZM24.9616 27.0351C25.5548 26.5903 26.3962 26.7105 26.8411 27.3036L28.1835 29.0936C28.6284 29.6867 28.5082 30.5282 27.915 30.973C27.3219 31.4179 26.4805 31.2977 26.0356 30.7045L24.6931 28.9146C24.2483 28.3215 24.3685 27.48 24.9616 27.0351Z" fill="white"/>
<path d="M22.1872 16.699C22.9827 16.1023 24.0765 16.1023 24.8721 16.699L27.915 18.9812C28.5081 19.426 28.6284 20.2675 28.1835 20.8606C27.7386 21.4538 26.8972 21.574 26.304 21.1291L23.5296 19.0483L20.7552 21.1291C20.1621 21.574 19.3206 21.4538 18.8757 20.8606C18.4309 20.2675 18.5511 19.426 19.1442 18.9812L22.1872 16.699Z" fill="#6EFCD0"/>
</svg>
