<svg width="264" height="507" viewBox="0 0 264 507" fill="none" xmlns="http://www.w3.org/2000/svg">
<g clip-path="url(#clip0_3985_87)">
<path d="M104 357L104 167" stroke="#E0E0E3"/>
<path d="M132 357L132 167" stroke="#E0E0E3"/>
<path d="M263.5 402L177 402" stroke="#E0E0E3"/>
<path d="M235 431L177 431" stroke="#E0E0E3"/>
<path d="M206.5 460L177 460" stroke="#E0E0E3"/>
<path d="M75 358L75 167" stroke="#E0E0E3"/>
<path d="M46 356.5L46 167" stroke="#E0E0E3"/>
<path d="M264.287 402L159.5 506.787" stroke="#E0E0E3"/>
<path d="M-2.01072e-06 121C6.0408 121 12.0225 122.19 17.6034 124.502C23.1844 126.813 28.2554 130.202 32.5269 134.473C36.7984 138.745 40.1867 143.816 42.4985 149.397C44.8102 154.978 46 160.959 46 167" stroke="#E0E0E3"/>
<path d="M178 402C171.959 402 165.978 400.81 160.397 398.498C154.816 396.187 149.745 392.798 145.473 388.527C141.202 384.255 137.813 379.184 135.502 373.603C133.19 368.022 132 362.041 132 356" stroke="#E0E0E3"/>
<path d="M-4.54598e-06 63C13.6575 63 27.1812 65.69 39.7991 70.9165C52.4169 76.143 63.8818 83.8036 73.5391 93.4609C83.1964 103.118 90.857 114.583 96.0835 127.201C101.31 139.819 104 153.343 104 167" stroke="#E0E0E3"/>
<path d="M75 356C75 369.657 77.69 383.181 82.9165 395.799C88.143 408.417 95.8036 419.882 105.461 429.539C115.118 439.196 126.583 446.857 139.201 452.083C151.819 457.31 165.343 460 179 460" stroke="#E0E0E3"/>
<path d="M-5.7699e-06 35C17.3345 35 34.4992 38.4143 50.5142 45.0479C66.5292 51.6815 81.0808 61.4046 93.3381 73.6619C105.595 85.9192 115.318 100.471 121.952 116.486C128.586 132.501 132 149.666 132 167" stroke="#E0E0E3"/>
<path d="M46 356C46 373.334 49.4143 390.499 56.0479 406.514C62.6815 422.529 72.4046 437.081 84.6619 449.338C96.9192 461.595 111.471 471.318 127.486 477.952C143.501 484.586 160.666 488 178 488" stroke="#E0E0E3"/>
<path d="M-3.27835e-06 92C9.84914 92 19.6018 93.9399 28.7013 97.709C37.8007 101.478 46.0686 107.003 53.033 113.967C59.9974 120.931 65.5219 129.199 69.291 138.299C73.0601 147.398 75 157.151 75 167" stroke="#E0E0E3"/>
<path d="M104 356C104 365.849 105.94 375.602 109.709 384.701C113.478 393.801 119.003 402.069 125.967 409.033C132.931 415.997 141.199 421.522 150.299 425.291C159.398 429.06 169.151 431 179 431" stroke="#E0E0E3"/>
<circle cx="177.5" cy="356.5" r="45" stroke="#E0E0E3"/>
<path d="M46 166.5C46 172.475 44.8231 178.392 42.5365 183.912C40.2499 189.432 36.8984 194.448 32.6734 198.673C28.4483 202.898 23.4324 206.25 17.9121 208.537C12.3918 210.823 6.47515 212 0.5 212" stroke="#E0E0E3"/>
<circle cx="177.5" cy="356.5" r="18" stroke="#E0E0E3"/>
<path d="M0.499998 148C5.4065 148 10.112 149.949 13.5815 153.419C17.0509 156.888 19 161.593 19 166.5C19 171.407 17.0509 176.112 13.5815 179.581C10.1121 183.051 5.40651 185 0.500002 185" stroke="#E0E0E3"/>
</g>
<defs>
<clipPath id="clip0_3985_87">
<rect width="264" height="507" fill="white"/>
</clipPath>
</defs>
</svg>
